<?xml version="1.0" standalone="no"?>

<!DOCTYPE svg PUBLIC "-//W3C//DTD SVG 20010904//EN"
 "http://www.w3.org/TR/2001/REC-SVG-20010904/DTD/svg10.dtd">

<svg version="1.0" xmlns="http://www.w3.org/2000/svg"
 width="669.000000pt" height="244.078120pt" viewBox="0 0 669.000000 244.078120"
 preserveAspectRatio="xMidYMid meet">
 
<g transform="translate(-62.000000,370.078120) scale(0.100000,-0.100000)"
fill="#000000" stroke="none">

<!-- Top Style -->
<path fill="#ad9110" stroke="none" d="M2950 3690 c0 -5 10 -16 22 -24 17 -12
48 -16 121 -16 l99 0 60 -50 60 -50 196 0 197 1 -30 24 c-29 24 -35 25 -192
25 l-161 0 -56 50 -55 51 -130 -2 c-72 0 -131 -5 -131 -9z"/>
<path fill="#ad9110" stroke="none" d="M4534 3650 l-57 -50 -156 0 c-151 0
-157 -1 -186 -25 l-30 -24 177 -1 c97 0 189 5 203 10 15 6 48 28 74 50 l47 40
110 0 c105 0 112 1 134 25 l23 25 -141 0 -141 0 -57 -50z"/>
<path fill="#beaa4f" stroke="none" d="M4758 3583 c-16 -10 -28 -21 -28 -26 0
-4 441 -6 980 -5 917 3 980 4 997 21 16 16 -27 17 -908 17 -510 0 -946 2 -970
5 -32 4 -52 1 -71 -12z"/>
<path fill="#beaa4f" stroke="none" d="M1025 3570 c18 -20 31 -20 1037 -20
647 0 1018 4 1018 10 0 5 -9 14 -19 20 -13 7 -355 10 -1037 10 -1016 0 -1017
0 -999 -20z"/>
<path fill="#977e0e" stroke="none" d="M1912 3503 l-963 -3 3 -23 c3 -21 7
-22 140 -25 l137 -3 42 -49 42 -50 319 0 318 0 39 35 38 35 415 0 414 0 34
-35 34 -35 286 0 287 0 41 45 41 45 323 0 324 0 44 -45 45 -46 282 3 282 3 28
26 28 27 431 7 431 7 40 -36 40 -36 268 0 268 0 46 49 46 49 129 5 c110 3 131
7 142 22 8 10 13 20 11 21 -4 4 -3904 9 -4875 7z"/>
<path fill="#796612" stroke="none" d="M900 3392 c0 -5 9 -17 20 -27 16 -15
37 -17 140 -16 l121 2 49 -50 49 -51 195 0 c183 0 196 1 206 19 5 11 10 23 10
28 0 4 -87 7 -193 5 l-192 -2 -50 50 -49 50 -153 0 c-84 0 -153 -4 -153 -8z"/>
<path fill="#796612" stroke="none" d="M6481 3355 l-41 -45 -164 0 c-145 0
-165 -2 -179 -18 -10 -10 -17 -22 -17 -25 0 -4 85 -7 188 -7 l188 0 39 40 c39
40 39 40 120 41 119 1 165 10 183 37 l14 22 -145 0 -144 0 -42 -45z"/>

<!-- Rune -->
<!-- R -->
<path fill="#c02560" stroke="none" d="M620 2475 l0 -335 30 0 30 0 0 294 c0
179 4 297 10 301 5 3 31 3 58 -1 45 -6 52 -10 72 -46 l23 -40 -48 -92 -47 -91
20 -50 c11 -27 43 -98 71 -156 47 -99 53 -107 83 -112 18 -2 35 -3 37 -1 2 2
-29 74 -69 160 l-73 155 47 97 c25 53 46 101 46 106 0 5 -24 40 -52 77 l-53
69 -92 0 -93 0 0 -335z"/>

<!-- U -->
<path fill="#ad9110" stroke="none" d="M1082 2549 l-2 -266 74 -71 74 -72 92
0 92 0 69 67 69 66 -2 271 -2 271 -6 -263 -5 -263 -65 -65 -64 -64 -89 0 -89
0 -69 66 -69 67 -3 261 -2 261 -3 -266z"/>

<!-- N -->
<path fill="#ad9110" stroke="none" d="M1720 2474 l0 -335 28 3 27 3 3 293 2
293 73 -3 72 -3 43 -63 42 -64 0 -229 0 -229 30 0 30 0 0 244 0 244 -70 91
-71 91 -104 0 -105 0 0 -336z"/>

<!-- E -->
<path fill="#ad9110" stroke="none" d="M2265 2788 c-3 -13 -4 -162 -3 -333 l3
-310 194 -3 c123 -1 198 1 205 8 7 7 -53 10 -187 10 l-197 0 0 155 0 155 185
0 c117 0 185 4 185 10 0 6 -68 10 -185 10 l-186 0 3 148 3 147 188 3 c113 1
187 6 187 12 0 6 -75 10 -195 10 -194 0 -195 0 -200 -22z"/>

<!-- Encoder -->
<!-- E -->
<path fill="#ad9110" stroke="none" d="M3544 2801 c-6 -6 -5 -124 2 -157 4
-23 19 -36 65 -62 l59 -33 0 66 0 65 145 0 146 0 -3 63 -3 62 -203 0 c-112 0
-205 -2 -208 -4z"/>
<path fill="#977e0e" stroke="none" d="M3540 2355 l0 -205 213 2 212 3 3 49
c6 100 12 96 -153 96 l-145 0 0 60 0 59 68 3 67 3 -45 24 c-25 13 -64 39 -88
58 -38 31 -87 53 -119 53 -10 0 -13 -47 -13 -205z"/>
<path fill="#796612" stroke="none" d="M3680 2543 c0 -4 23 -23 51 -41 53 -35
163 -62 181 -44 5 5 8 27 6 48 l-3 39 -117 3 c-65 1 -118 -1 -118 -5z"/>

<!-- N -->
<path fill="#ad9110" stroke="none" d="M4150 2474 l0 -335 28 3 27 3 3 293 2
292 69 0 69 0 35 -48 c63 -89 62 -81 67 -317 l5 -220 24 -3 c13 -2 27 1 30 7
4 6 6 110 4 232 l-3 222 -57 81 c-92 133 -81 126 -200 126 l-103 0 0 -336z"/>

<!-- C -->
<path fill="#ad9110" stroke="none" d="M4741 2735 l-71 -75 0 -188 0 -189 74
-71 74 -72 94 0 94 0 74 75 c41 41 70 75 64 75 -5 0 -39 -29 -74 -65 l-64 -65
-94 0 -94 0 -64 62 -64 61 0 186 0 187 68 67 68 67 89 0 89 0 68 -67 c84 -84
89 -71 7 20 l-61 67 -103 0 -102 0 -72 -75z"/>

<!-- O -->
<path fill="#ad9110" stroke="none" d="M5358 2723 c-51 -81 -56 -102 -26 -103
4 0 24 25 44 55 20 30 40 55 43 55 7 -1 125 -179 129 -196 2 -7 -4 -24 -13
-37 -14 -22 -12 -57 4 -57 3 0 20 21 38 46 l31 46 -85 126 c-47 70 -92 133
-98 140 -10 11 -23 -3 -67 -75z"/>

<path fill="#c02560" stroke="none" d="M5263 2561 l-22 -28 58 -85 c31 -47 67
-101 79 -120 l21 -34 -22 -35 c-13 -19 -33 -51 -46 -71 l-23 -38 34 0 c28 0
37 6 52 35 11 20 24 34 30 32 6 -2 22 -20 35 -40 19 -28 31 -37 53 -37 15 0
28 3 28 6 0 3 -18 36 -40 73 -22 37 -40 74 -40 83 0 8 14 32 30 53 23 29 28
41 19 51 -17 21 -24 18 -50 -21 -13 -19 -27 -35 -31 -35 -12 0 -128 174 -128
192 0 9 5 20 10 23 16 10 11 25 -7 24 -10 0 -28 -13 -40 -28z"/>

<!-- D -->
<path fill="#ad9110" stroke="none" d="M5732 2798 c-9 -9 -11 -76 -10 -252 l3
-241 2 229 c2 148 7 234 14 243 9 10 47 13 149 13 l137 0 61 -64 62 -64 0
-187 0 -186 -60 -62 c-57 -59 -62 -62 -107 -62 -62 0 -67 -19 -7 -23 47 -3 48
-2 121 70 l73 72 0 194 0 194 -67 69 -66 69 -147 0 c-100 0 -150 -4 -158 -12z"/>
<path fill="#ad9110" stroke="none" d="M5690 2252 c0 -4 21 -31 46 -60 46 -53
46 -53 100 -50 69 4 70 23 2 24 -49 1 -55 4 -93 48 -39 44 -55 55 -55 38z"/>

<!-- E -->
<path fill="#ad9110" stroke="none" d="M6387 2803 c-4 -3 -7 -154 -7 -335 l0
-328 190 0 c117 0 190 4 190 10 0 6 -72 11 -182 12 l-183 3 0 150 0 150 183 3
c116 1 181 6 177 12 -4 6 -80 10 -186 10 l-180 0 3 148 3 147 183 3 c110 1
182 6 182 12 0 11 -362 14 -373 3z"/>

<!-- R -->
<path fill="#c02560" stroke="none" d="M6982 2478 l3 -333 28 -3 27 -3 0 300
0 301 43 0 c41 0 44 -2 76 -55 31 -51 32 -56 21 -92 -7 -21 -24 -60 -37 -87
-32 -64 -29 -81 45 -238 58 -123 62 -128 91 -128 20 0 31 5 31 14 0 8 -27 69
-60 137 -33 68 -60 131 -60 140 0 9 18 62 41 118 l40 101 -63 80 -63 80 -83 0
-82 0 2 -332z"/>

<!-- Bottom Style -->
<path fill="#796612" stroke="none" d="M1267 1655 l-37 -44 -103 -3 c-97 -3
-102 -4 -105 -25 -3 -23 -2 -23 117 -23 67 0 121 4 121 8 0 4 15 25 34 45 l34
37 189 0 c189 0 190 0 213 25 l23 25 -224 0 -225 0 -37 -45z"/>
<path fill="#796612" stroke="none" d="M6090 1692 c0 -5 8 -16 18 -25 14 -13
53 -16 225 -19 l209 -4 35 -42 35 -42 118 0 c94 0 122 3 134 16 9 8 16 20 16
25 0 5 -54 9 -124 9 l-123 0 -42 45 -41 45 -230 0 c-127 0 -230 -4 -230 -8z"/>
<path fill="#977e0e" stroke="none" d="M1304 1555 l-39 -46 -137 -6 c-108 -5
-138 -9 -143 -21 -3 -8 -3 -18 1 -21 8 -8 5674 -14 5802 -6 88 6 103 9 100 23
-3 15 -23 18 -140 22 l-137 5 -48 48 -49 47 -319 0 -319 0 -31 -30 -32 -31
-433 1 -433 0 -34 30 -34 30 -280 0 -279 0 -44 -40 -43 -40 -320 0 -319 0 -39
40 -39 40 -288 0 -287 0 -34 -30 -35 -30 -420 0 -421 0 -34 30 -35 30 -310 0
-310 0 -38 -45z"/>
<path fill="#beaa4f" stroke="none" d="M1082 1388 c-7 -7 -12 -16 -12 -20 0
-4 444 -8 988 -8 964 0 988 1 1012 20 25 19 19 20 -975 20 -766 0 -1004 -3
-1013 -12z"/>
<path fill="#ad9110" stroke="none" d="M3258 1355 l-47 -45 -96 0 c-94 0 -155
-16 -155 -40 0 -6 52 -10 129 -10 l129 0 55 45 55 46 159 6 c130 4 163 9 188
24 30 19 29 19 -170 19 l-200 0 -47 -45z"/>
<path fill="#ad9110" stroke="none" d="M4137 1379 c27 -17 50 -20 180 -22
l149 -2 56 -47 55 -48 144 0 144 1 -28 24 c-26 23 -35 25 -139 25 l-111 0 -48
45 -48 45 -193 0 -193 0 32 -21z"/>
<path fill="#beaa4f" stroke="none" d="M4720 1392 c0 -31 22 -32 1059 -32
1033 0 1034 0 1016 20 -18 20 -31 20 -1047 20 -565 0 -1028 -4 -1028 -8z"/>
</g>
</svg>
